<svg xmlns="http://www.w3.org/2000/svg" data-name="Layer 1" viewBox="0 0 128 128" id="whale">
    <path fill="#12A2CD" d="M36.99608,107.9175c-1.3252-.3047-2.6123-.6416-3.877-.999a28.02167,28.02167,0,0,0-.4785,5.7578,16.56111,16.56111,0,0,1-4.959-7.5235c-1.5341-.5669-3.0263-1.1699-4.457-1.8261.7002,5.1308,3.4678,10.8686,10.9668,15.3925a2.04485,2.04485,0,0,0,2.26562-.1323,1.97719,1.97719,0,0,0,.68358-2.1494A19.71165,19.71165,0,0,1,36.99608,107.9175Z"></path>
    <ellipse fill="#12A2CD" cx="29.985" cy="60.536" rx="2" ry="1.982"></ellipse>
    <path fill="#12A2CD" d="M16.36228,73.7251a2.006,2.006,0,0,0-2.5605-1.1777,1.97827,1.97827,0,0,0-1.1963,2.5405,18.88569,18.88569,0,0,0,7.8701,8.9629,2.02864,2.02864,0,0,0,2.7363-.711,1.97287,1.97287,0,0,0-.7168-2.7119A15.084,15.084,0,0,1,16.36228,73.7251Z"></path>
    <path fill="#12A2CD" d="M126.78608,43.6167a4.422,4.422,0,0,0-3.2148-1.3804,5.02711,5.02711,0,0,0-2.9658,1.0166,4.86022,4.86022,0,0,1-1.084.6182c-1.7432.6899-3.834.1831-5.6611.5918a14.17686,14.17686,0,0,0-2.9678,1.0347,11.03778,11.03778,0,0,0-4.9649-2.5874,14.54946,14.54946,0,0,0-2.3115-.336,7.18718,7.18718,0,0,1-1.0596-.1333,7.31374,7.31374,0,0,1-1.5752-1.6675,4.75925,4.75925,0,0,0-3.8232-2.041,4.4752,4.4752,0,0,0-4.3877,3.7471c-1.5918,7.5947,2.9736,13.1103,8.5166,16.2065a17.30632,17.30632,0,0,1-5.6318,6.9561,24.64592,24.64592,0,0,1-13.8321,3.9849,34.6406,34.6406,0,0,1-19.247-6.2364,54.35254,54.35254,0,0,1-4.6143-3.7485,64.17967,64.17967,0,0,0-5.0078-4.0762A57.45722,57.45722,0,0,0,19.46388,45.123c-1.4785,0-4.7237.1675-4.9502.1773-7.0059.3203-11.0772.6172-12.76168,2.7734a4.51282,4.51282,0,0,0-.79011,1.8047c-2.0234,10.1441-1.3808,25.8911,7.0957,36.8609,7.5557,9.7797,19.77642,16.0234,36.3203,18.5551,1.5313.2339,3.08212.4092,4.6426.544a30.83241,30.83241,0,0,1-2.5976-4.2691c-.4795-.063-.96488-.1201-1.4346-.1923-12.7627-1.9532-25.6416-6.5479-33.7549-17.0479-6.5537-8.4819-8.3115-21.127-6.6982-31.6685,8.4365,4.6299,12.7314,11.0391,17.2421,17.7974.67972,1.0181,1.3614,2.041,2.0606,3.062,5.5146,8.0518,12.03712,14.1211,19.4404,18.107a46.549,46.549,0,0,1-.2734-4.774,53.64683,53.64683,0,0,1-15.8565-15.5586c-.68938-1.0088-1.3632-2.018-2.0351-3.0224-4.4082-6.6079-8.9551-13.4107-17.541-18.4629,2.9062-.3999,7.1914-.542,7.6816-.5762q2.1153-.1464,4.21-.146A53.14151,53.14151,0,0,1,50.623,58.7876c3.37018,2.3926,6.23928,5.4731,9.65528,7.8491a38.45568,38.45568,0,0,0,21.5449,6.9541,28.84342,28.84342,0,0,0,16.0489-4.6494c3.9521-2.6074,6.5752-6.9614,8.2295-11.353a1.0091,1.0091,0,0,0-.59958-1.2783c-2.74812-1.1119-10.49522-5.0049-8.81062-13.0401.0791-.3833.2539-.5737.4668-.5737a.82249.82249,0,0,1,.5879.4082,11.09794,11.09794,0,0,0,2.5625,2.6167c1.4189.9746,3.0791.6484,4.6533,1.0361a7.02093,7.02093,0,0,1,3.3262,1.7588,5.804,5.804,0,0,1,1.1465,1.752c.35642.7822,1.23342-.1211,1.6367-.3672a12.78086,12.78086,0,0,1,3.667-1.5708,16.69128,16.69128,0,0,1,3.2392-.1836,8.69518,8.69518,0,0,0,3.0264-.5923,8.83967,8.83967,0,0,0,1.9785-1.1123,1.05621,1.05621,0,0,1,.5889-.2407c.2832,0,.456.2339.4228.6909-.1982,2.8154-1.6367,9.3144-10.2548,10.8667-.1036.0195-1.6192.2593-2.8497.478a1.64074,1.64074,0,0,0-1.2041,1.1499c-2.623,11.1157-7.22748,19.5825-12.9834,25.9317-4.3007,1.9687-10.61908,5.645-23.28508,7.3593a32.954,32.954,0,0,0,.44238,3.9566,73.46741,73.46741,0,0,0,13.3301-3.2383,52.32071,52.32071,0,0,1-12.7354,5.9302,28.16632,28.16632,0,0,0,1.2861,3.7666,56.02892,56.02892,0,0,0,13.9912-6.5972c11.627-7.6499,19.5157-19.2944,23.461-34.6289.4238-.0698.84762-.1353,1.2705-.208,11.749-2.1172,13.3213-11.627,13.5225-14.4907A4.625,4.625,0,0,0,126.78608,43.6167Z"></path>
    <path fill="#12A2CD" d="M69.50288 87.4502a2.00035 2.00035 0 0 0-3.9883-.3125c-.88958 11.1387 2.3663 18.9165 5.0059 23.2554-19.6074-4.2237-19.5488-22.2246-19.5342-23.0591a2.00052 2.00052 0 0 0-4-.082c-.0049.2514-.2256 25.2607 27.8184 27.7841.0605.0059 1.5391-.1074 1.98632-1.1298a2.01384 2.01384 0 0 0-.38672-2.2417C76.32228 111.5825 68.24018 103.2612 69.50288 87.4502zM30.72558 40.7124c.02642.001.0537.002.0801.002a1.9966 1.9966 0 0 0 1.9248-1.4488 14.85589 14.85589 0 0 1 2.6181-5.124 25.73219 25.73219 0 0 1 7.4268-6.1162 21.05319 21.05319 0 0 1 2.1689-1.0303c2.4024-1.0386 5.3926-2.3315 6.5332-5.6172a9.02858 9.02858 0 0 0-1.2558-8.3276A9.54245 9.54245 0 0 0 42.55078 9l-.124.001a12.691 12.691 0 0 0-10.125 4.6216c-6.7637 8.2627-3.5977 24.79-3.46 25.4897A1.99477 1.99477 0 0 0 30.72558 40.7124zm4.6826-24.5928a8.78575 8.78575 0 0 1 7.1426-3.1557 5.60506 5.60506 0 0 1 4.415 2.3891 5.09933 5.09933 0 0 1 .7285 4.7354c-.5302 1.5288-1.997 2.2563-4.3496 3.2734a24.10667 24.10667 0 0 0-2.5986 1.2476 29.52262 29.52262 0 0 0-8.5342 7.0732c-.0566.0703-.1133.1421-.16888.2139C31.79978 26.5796 32.32228 19.8892 35.40818 16.1196zM37.47748 38.9771a1.96794 1.96794 0 0 0-.0488 2.4321 2.01366 2.01366 0 0 0 2.3662.6474 9.35127 9.35127 0 0 1 6.334.0777A15.72 15.72 0 0 1 49.251 43.4722c1.75488.9956 3.68748 1.8554 5.71868 1.1757a5.88181 5.88181 0 0 0 3.792-3.9848 6.81457 6.81457 0 0 0-1.2031-6.1392 8.73324 8.73324 0 0 0-6.8867-3.4966C44.16018 31.0273 38.14258 38.1631 37.47748 38.9771zm16.9639-1.9683c.8867 1.0928.8633 3.6933-.9365 3.9184-.836.1045-1.58788-.5107-2.2686-.8964a15.97115 15.97115 0 0 0-1.6347-.8428 20.26471 20.26471 0 0 0-5.0899-1.4815c1.8877-1.4609 4.125-2.7153 6.1602-2.7153A4.73826 4.73826 0 0 1 54.44138 37.0088zM7.29 39.312c1.85748 1.1235 3.96488.7485 5.94438.2246a15.79924 15.79924 0 0 1 7.1601-.3071 8.06651 8.06651 0 0 1 2.9014 1.2358 2.0342 2.0342 0 0 0 2.4512-.1215 1.97065 1.97065 0 0 0 .4853-2.3848c-.2256-.4492-5.6113-11.0103-13.3965-11.0103a9.58355 9.58355 0 0 0-5.6386 1.9385 6.66155 6.66155 0 0 0-2.751 5.6113A5.81085 5.81085 0 0 0 7.29 39.312zm2.253-7.2134a5.58817 5.58817 0 0 1 3.29288-1.1855c2.4668 0 4.8614 1.9936 6.70712 4.1787a21.84831 21.84831 0 0 0-5.49512.1992 17.24988 17.24988 0 0 0-1.8448.4146 4.91794 4.91794 0 0 1-2.4218.3696 1.82257 1.82257 0 0 1-1.3379-1.7334A2.69871 2.69871 0 0 1 9.543 32.0986z"></path>
</svg>